<?xml version="1.0" standalone="no"?>
<!DOCTYPE svg PUBLIC "-//W3C//DTD SVG 20010904//EN"
 "http://www.w3.org/TR/2001/REC-SVG-20010904/DTD/svg10.dtd">
<svg version="1.0" xmlns="http://www.w3.org/2000/svg"
 width="400.000000pt" height="400.000000pt" viewBox="0 0 400.000000 400.000000"
 preserveAspectRatio="xMidYMid meet">
<metadata>
Created by potrace 1.11, written by Peter Selinger 2001-2013
</metadata>
<g transform="translate(0.000000,400.000000) scale(0.100000,-0.100000)"
fill="#000000" stroke="none">
<path d="M1794 3992 c6 -10 2 -13 -16 -10 -14 1 -33 -4 -44 -12 -10 -9 -15
-10 -10 -2 4 7 1 12 -9 12 -9 0 -14 -4 -11 -8 3 -4 -8 -7 -25 -6 -16 1 -32 -2
-35 -7 -3 -6 -11 -5 -20 2 -11 9 -14 9 -14 0 0 -7 -4 -9 -10 -6 -5 3 -10 2
-10 -3 0 -8 -14 -12 -53 -13 -9 0 -15 -4 -13 -8 3 -4 -5 -7 -17 -6 -12 1 -26
-1 -32 -5 -12 -9 -67 -24 -77 -22 -5 1 -8 -2 -8 -6 0 -8 -6 -10 -49 -14 -11
-1 -19 -7 -18 -13 1 -5 -8 -9 -20 -7 -13 2 -23 -2 -23 -9 0 -7 -3 -9 -7 -6 -3
4 -15 -1 -26 -10 -15 -13 -18 -14 -12 -3 4 8 -4 4 -20 -10 -16 -14 -25 -18
-21 -10 4 8 0 6 -9 -5 -9 -11 -19 -19 -23 -18 -10 4 -46 -8 -52 -18 -3 -4 -12
-9 -20 -11 -8 -2 -21 -11 -29 -21 -7 -10 -20 -16 -27 -13 -8 3 -17 -1 -20 -9
-3 -8 -16 -17 -27 -21 -12 -4 -28 -14 -35 -23 -10 -12 -12 -12 -6 -1 4 8 -4 5
-18 -8 -13 -12 -28 -19 -31 -15 -4 3 -7 -1 -7 -10 0 -10 -7 -17 -16 -17 -9 0
-12 -5 -8 -12 4 -6 3 -8 -3 -5 -6 4 -23 -5 -37 -18 -15 -14 -32 -25 -37 -25
-6 0 -7 -4 -4 -10 3 -5 2 -10 -3 -10 -5 0 -22 -11 -38 -25 -16 -14 -32 -25
-36 -25 -5 0 -8 -7 -8 -15 0 -8 -6 -14 -12 -12 -7 1 -12 -4 -11 -10 2 -7 -3
-13 -10 -13 -7 0 -19 -9 -27 -20 -8 -11 -20 -20 -27 -20 -7 0 -13 -9 -13 -20
0 -13 -5 -18 -15 -13 -9 3 -15 1 -13 -3 2 -5 -9 -23 -24 -39 -16 -16 -28 -35
-28 -42 0 -7 -6 -12 -13 -10 -6 1 -11 -4 -10 -10 2 -7 -1 -13 -6 -13 -5 0 -13
-9 -16 -20 -4 -11 -11 -17 -17 -14 -6 4 -8 2 -4 -4 3 -6 -4 -21 -17 -34 -13
-13 -21 -30 -19 -37 3 -8 0 -11 -7 -7 -6 4 -11 1 -11 -9 0 -9 -12 -27 -26 -40
-15 -14 -21 -25 -14 -25 7 0 2 -9 -11 -21 -13 -11 -17 -17 -9 -13 8 4 5 -3 -8
-15 -12 -12 -19 -27 -16 -33 4 -7 2 -8 -4 -4 -11 6 -16 -6 -13 -26 0 -5 -4 -8
-10 -8 -5 0 -8 -4 -5 -9 4 -5 2 -11 -4 -13 -6 -2 -12 -13 -15 -26 -2 -12 -13
-34 -24 -48 -12 -15 -18 -30 -15 -35 3 -5 0 -9 -6 -9 -6 0 -9 -4 -6 -8 3 -5
-4 -23 -15 -41 -11 -18 -15 -30 -9 -26 15 10 12 -4 -6 -22 -8 -9 -13 -25 -11
-35 3 -11 0 -21 -8 -24 -8 -3 -11 -12 -8 -20 3 -8 0 -14 -7 -14 -9 0 -9 -4 1
-17 10 -11 10 -14 2 -9 -12 6 -19 -18 -14 -46 0 -5 -3 -8 -7 -8 -7 0 -11 -16
-14 -57 -1 -7 -4 -13 -8 -13 -3 0 -6 -8 -6 -17 -1 -16 -11 -95 -17 -127 -1 -6
-6 -14 -12 -18 -6 -5 -5 -8 2 -8 9 0 10 -7 3 -25 -5 -14 -7 -25 -4 -25 4 0 0
-8 -7 -17 -10 -11 -10 -14 -1 -9 16 9 16 -6 0 -23 -10 -11 -10 -13 0 -7 6 4
12 2 12 -3 0 -6 -4 -11 -10 -11 -5 0 -10 -5 -10 -11 0 -5 6 -7 13 -3 8 5 8 2
-2 -9 -9 -12 -10 -17 -2 -17 8 0 9 -5 1 -19 -14 -27 -13 -61 3 -61 8 0 9 -3 1
-8 -6 -4 -10 -18 -9 -32 1 -14 -2 -30 -7 -37 -6 -8 -4 -20 7 -36 10 -16 12
-27 6 -31 -6 -4 -7 -16 -3 -29 5 -12 8 -34 7 -49 0 -16 2 -28 5 -28 5 0 11
-53 14 -112 0 -16 4 -28 8 -28 4 0 7 -8 7 -17 0 -17 7 -55 11 -60 4 -5 7 -16
15 -60 4 -24 11 -40 16 -37 5 3 6 -1 4 -8 -3 -8 1 -33 9 -56 9 -23 13 -50 10
-60 -5 -14 -4 -15 5 -2 6 8 11 11 12 5 0 -5 3 -19 5 -30 3 -11 6 -26 6 -32 1
-7 6 -13 11 -13 5 0 7 -7 3 -15 -3 -8 -1 -15 5 -15 6 0 8 -7 5 -16 -3 -8 -2
-13 3 -10 5 3 14 -8 20 -24 5 -17 7 -30 3 -30 -4 0 1 -5 11 -11 9 -6 15 -14
12 -20 -4 -5 -1 -9 5 -9 6 0 9 -4 6 -9 -3 -5 1 -14 9 -21 8 -7 15 -21 15 -31
0 -10 5 -21 10 -24 7 -4 7 -12 0 -24 -5 -10 -6 -21 -2 -25 3 -4 -1 -4 -9 -1
-13 5 -16 0 -14 -19 2 -14 0 -26 -4 -26 -4 0 -8 -9 -9 -20 -4 -43 -6 -50 -13
-50 -4 0 -10 -7 -13 -16 -3 -8 -2 -12 4 -9 6 3 7 -1 4 -9 -3 -9 -10 -16 -16
-16 -5 0 -6 -5 -3 -10 4 -6 -1 -22 -10 -37 -9 -14 -12 -22 -6 -19 16 10 13 -3
-4 -21 -8 -8 -13 -19 -10 -24 4 -5 1 -9 -5 -9 -6 0 -8 -5 -5 -10 4 -6 2 -16
-3 -23 -5 -7 -8 -22 -7 -34 1 -12 -2 -20 -7 -17 -6 4 -11 -7 -7 -18 0 -2 -9
-27 -20 -56 -12 -29 -21 -62 -21 -73 0 -11 -4 -18 -8 -15 -7 4 -11 -9 -14 -51
-1 -7 -8 -15 -15 -17 -8 -3 -12 -10 -8 -16 7 -11 -21 -97 -38 -119 -9 -11 -9
-13 0 -8 7 5 9 0 6 -13 -3 -11 -10 -17 -16 -13 -5 3 -7 1 -4 -4 10 -16 -13
-74 -26 -67 -9 5 -9 3 0 -6 13 -14 6 -43 -9 -34 -6 4 -5 -4 2 -16 8 -15 8 -20
1 -16 -7 5 -11 -2 -11 -18 0 -35 10 -56 27 -56 8 0 12 -4 9 -8 -3 -5 18 -10
45 -11 40 -2 49 1 43 11 -5 9 -1 8 11 -2 15 -12 17 -12 10 -1 -6 11 -2 13 18
9 15 -3 24 -1 21 3 -5 9 9 13 33 10 6 -1 14 3 18 9 4 7 12 7 25 0 13 -7 21 -7
26 2 4 7 3 8 -4 4 -7 -4 -12 -2 -12 5 0 7 10 9 25 7 14 -3 28 -1 31 4 3 4 10
6 15 3 5 -4 9 -2 9 3 0 5 10 9 23 9 42 1 48 3 41 15 -5 8 0 7 11 -2 11 -9 16
-10 11 -2 -5 8 1 12 21 12 16 0 35 6 42 13 11 10 12 9 6 -2 -5 -8 3 -6 21 5
21 14 26 15 19 4 -7 -12 -6 -13 7 -3 8 7 18 10 21 6 4 -3 7 -1 7 4 0 6 8 10
17 9 10 -2 24 4 31 13 8 9 11 10 7 4 -3 -7 -1 -13 4 -13 6 0 11 5 11 11 0 5 5
7 10 4 6 -4 16 -2 23 3 7 5 20 8 29 7 10 -2 18 1 18 5 0 5 9 7 20 5 11 -2 26
3 34 11 17 17 30 19 20 2 -5 -7 -3 -8 7 -2 8 5 23 9 34 9 11 1 19 5 18 10 -1
9 29 15 89 18 9 1 15 4 12 8 -2 4 7 9 21 11 13 3 26 0 29 -6 3 -7 5 -7 5 1 1
7 19 16 41 19 22 4 38 10 35 13 -3 6 44 7 55 1 3 -2 10 -4 15 -4 6 -1 21 -8
34 -15 19 -11 22 -11 15 0 -4 8 5 4 20 -9 16 -12 32 -19 37 -16 5 3 9 0 9 -5
0 -6 3 -10 8 -10 19 3 33 -2 28 -10 -3 -5 0 -9 7 -8 32 1 48 -4 42 -13 -3 -6
1 -7 10 -4 8 4 23 0 32 -7 14 -12 16 -12 8 1 -7 12 -3 11 18 -3 15 -9 27 -14
27 -10 0 5 5 1 10 -7 7 -11 10 -12 10 -2 0 10 3 10 15 -1 8 -9 23 -14 32 -13
10 2 21 -1 25 -7 3 -5 23 -12 45 -13 37 -4 78 -11 78 -14 0 -2 42 -8 88 -12 9
-1 17 -5 17 -8 0 -4 18 -5 39 -3 22 1 43 -2 46 -7 4 -7 13 -7 24 0 10 5 21 6
25 3 4 -4 23 -6 42 -5 27 2 34 0 28 -10 -6 -10 -4 -10 7 -2 8 5 38 9 66 8 32
-1 50 3 47 8 -4 6 3 5 15 -1 16 -9 21 -9 21 1 0 9 3 9 10 -2 6 -10 10 -11 10
-2 0 6 5 12 11 12 5 0 8 -4 4 -9 -3 -6 4 -8 17 -5 13 3 37 7 53 8 17 1 35 4
40 8 6 3 24 5 42 4 17 0 29 2 27 6 -2 3 13 6 33 5 21 -1 52 6 70 15 22 11 34
13 42 5 8 -8 11 -7 11 2 0 7 5 9 10 6 6 -3 10 -1 10 4 0 6 3 10 8 10 28 -5 52
2 46 14 -5 8 -2 8 9 -2 13 -10 17 -10 17 -1 0 7 7 10 15 6 8 -3 15 -1 15 4 0
5 9 7 20 5 11 -2 18 0 15 4 -3 5 2 11 10 15 8 3 15 0 15 -7 0 -8 3 -7 9 2 5 8
17 16 26 17 9 1 34 11 55 22 22 10 37 14 34 8 -3 -6 1 -3 9 6 8 10 17 15 20
11 4 -3 7 -1 7 5 0 6 7 9 15 6 8 -4 15 -1 15 5 0 9 83 54 103 55 4 1 12 8 17
16 5 8 10 11 10 6 0 -5 9 1 20 14 11 13 20 17 20 10 0 -7 11 -1 25 14 13 14
31 26 40 26 10 0 13 5 9 11 -4 7 -1 10 7 7 7 -2 26 8 42 24 17 15 34 28 39 28
5 0 14 5 21 10 7 6 21 18 32 26 11 9 14 12 6 8 -9 -4 -12 -3 -7 4 4 6 14 8 23
5 11 -4 14 -3 9 5 -4 7 -2 12 3 12 14 0 97 83 93 93 -1 5 2 6 8 2 5 -3 15 5
21 19 7 14 15 23 19 21 4 -3 15 5 23 18 8 12 26 35 41 50 14 15 26 33 26 38 0
6 5 7 10 4 6 -3 10 1 10 9 0 9 4 16 9 16 4 0 21 19 37 43 16 23 36 49 45 57 9
8 14 21 11 29 -3 8 0 11 7 7 6 -4 11 0 11 9 0 10 5 13 12 9 6 -4 8 -3 5 4 -9
14 3 43 14 36 5 -3 9 -2 8 3 -1 4 3 21 9 36 8 18 16 26 24 21 8 -5 7 0 -2 11
-8 10 -10 16 -3 12 7 -5 16 6 23 28 6 19 16 35 21 35 6 0 7 5 4 10 -3 6 -1 10
4 10 6 0 10 3 9 8 -1 4 3 16 9 27 6 11 11 22 10 25 0 3 7 17 17 32 9 14 16 35
14 45 -2 10 2 17 7 16 6 -1 12 7 13 18 4 43 6 49 15 49 6 0 7 3 4 6 -3 4 -1
16 5 28 7 11 11 25 10 30 -2 4 5 20 14 33 9 14 11 23 6 19 -6 -4 -10 2 -9 13
0 11 5 17 9 15 8 -5 12 10 9 34 -1 6 4 12 11 12 9 0 9 3 -2 10 -12 8 -12 10
-1 10 8 0 11 7 8 20 -3 11 -2 20 1 20 4 0 8 16 9 37 1 20 8 40 15 44 9 6 9 9
1 9 -8 0 -9 9 -3 30 5 16 6 30 3 30 -3 0 1 8 8 17 10 11 10 14 2 9 -7 -4 -13
-2 -13 3 0 6 5 11 10 11 6 0 10 7 10 15 0 8 -6 15 -12 15 -10 0 -10 2 -1 8 14
9 15 381 0 400 -5 6 -6 12 -3 12 4 0 2 9 -4 20 -8 15 -8 20 2 20 9 0 10 3 2 8
-6 4 -10 19 -10 34 1 14 -2 24 -6 22 -5 -3 -6 5 -4 18 2 13 -1 31 -5 40 -5 9
-10 28 -11 42 -1 15 -6 26 -11 26 -4 0 -7 6 -6 13 3 28 -2 48 -11 42 -6 -3 -7
1 -4 10 4 8 1 22 -6 30 -11 13 -10 15 6 9 18 -5 18 -5 0 10 -10 8 -19 26 -20
39 0 14 -5 23 -10 19 -5 -3 -7 2 -3 11 3 10 2 17 -3 17 -6 0 -10 9 -10 21 0
11 -4 18 -9 15 -4 -3 -6 6 -3 21 3 18 1 24 -6 19 -7 -4 -10 -2 -7 7 3 7 -3 21
-14 31 -11 10 -17 24 -15 31 3 7 -2 19 -10 28 -8 8 -12 17 -9 21 4 3 0 6 -7 6
-7 0 -10 3 -7 6 4 4 -3 20 -15 37 -13 19 -16 28 -7 23 7 -4 6 -1 -3 7 -10 8
-15 17 -11 20 3 4 2 7 -4 7 -6 0 -16 14 -23 30 -7 17 -17 30 -22 30 -5 0 -6 5
-3 10 3 6 1 10 -5 10 -6 0 -8 5 -5 10 3 6 1 10 -4 10 -6 0 -11 6 -11 14 0 8
-11 23 -25 34 -13 11 -22 21 -20 24 3 3 -6 17 -19 31 -14 15 -23 27 -21 27 3
0 -3 9 -12 19 -10 11 -29 33 -43 49 -14 17 -28 28 -33 25 -4 -2 -7 -1 -6 4 4
21 -2 33 -16 33 -8 0 -15 4 -15 10 0 12 -88 100 -100 100 -6 0 -10 7 -10 16 0
8 -4 13 -9 10 -5 -3 -11 1 -15 9 -3 8 -13 15 -21 15 -9 0 -13 5 -10 10 3 6 -5
14 -19 20 -14 5 -26 15 -26 21 0 7 -3 10 -6 7 -3 -3 -17 5 -31 18 -14 13 -28
22 -31 19 -3 -2 -13 7 -24 20 -11 14 -26 25 -34 25 -8 0 -14 5 -14 11 0 5 -4
7 -10 4 -5 -3 -10 -1 -10 5 0 6 -4 8 -10 5 -5 -3 -10 -2 -10 3 0 6 -13 15 -29
20 -15 6 -39 21 -51 34 -13 12 -19 16 -15 8 5 -8 -4 -4 -20 10 -16 14 -25 19
-21 13 11 -20 -1 -15 -25 10 -12 12 -19 16 -15 10 4 -8 -6 -6 -26 5 -18 9 -35
20 -36 25 -2 4 -8 5 -13 1 -5 -3 -9 -1 -9 5 0 5 -9 8 -20 6 -11 -2 -18 0 -15
5 3 5 1 11 -5 15 -5 3 -10 0 -10 -7 0 -10 -2 -10 -8 0 -5 7 -19 15 -33 17 -13
3 -25 9 -27 15 -2 6 -8 8 -13 4 -5 -3 -15 -2 -21 3 -13 8 -33 13 -55 15 -7 1
-13 6 -13 11 0 6 -3 7 -6 4 -4 -3 -16 -2 -27 4 -15 9 -18 8 -11 -3 6 -10 5
-11 -8 -1 -8 7 -18 10 -21 6 -4 -3 -7 -1 -7 5 0 6 -9 9 -20 7 -11 -2 -24 3
-30 13 -6 10 -10 12 -10 4 0 -10 -5 -10 -20 -2 -11 6 -20 8 -20 4 0 -3 -8 0
-17 7 -11 10 -14 10 -9 2 4 -7 2 -13 -3 -13 -6 0 -11 4 -11 8 0 5 -12 9 -27
10 -32 2 -78 8 -78 11 0 1 -19 4 -42 5 -30 3 -41 0 -36 -8 5 -8 3 -8 -8 0 -18
15 -302 17 -293 2 4 -6 0 -6 -13 1 -14 7 -24 7 -33 -2 -10 -9 -11 -9 -6 1 4 6
2 12 -3 12 -6 0 -11 -5 -11 -11 0 -8 -6 -7 -17 2 -13 11 -15 11 -9 1z m284
-136 c6 -3 13 -2 17 3 3 6 15 7 28 2 12 -4 35 -6 52 -5 16 2 33 -2 37 -9 5 -8
8 -8 8 -1 0 7 10 9 25 6 15 -2 22 -9 18 -16 -5 -8 -3 -8 8 0 8 6 23 10 34 7
20 -4 57 -10 105 -16 14 -2 36 -9 49 -16 17 -10 21 -10 16 -1 -5 9 -1 8 16 -1
13 -7 31 -14 39 -14 8 0 20 -3 26 -7 6 -4 21 -6 32 -3 12 2 25 -2 29 -8 11
-17 49 -45 39 -29 -4 6 -2 12 3 12 6 0 11 -5 11 -11 0 -6 7 -9 15 -5 8 3 15 1
15 -4 0 -6 7 -10 16 -10 8 0 13 -4 10 -8 -2 -4 3 -8 12 -8 27 -1 45 -8 60 -22
8 -7 18 -10 23 -7 5 4 9 1 9 -4 0 -6 9 -11 19 -11 10 0 21 -7 25 -15 3 -8 11
-12 19 -9 8 3 20 -2 27 -10 7 -9 16 -13 21 -10 5 3 9 0 9 -5 0 -6 7 -11 16
-11 8 0 12 -4 9 -10 -3 -5 0 -7 8 -4 8 3 18 0 22 -5 3 -6 11 -9 16 -5 5 3 8 0
7 -7 -2 -7 8 -16 22 -20 14 -4 21 -8 15 -8 -5 -1 2 -9 18 -17 15 -8 27 -19 27
-25 0 -6 5 -7 10 -4 6 3 14 -4 19 -17 6 -13 10 -17 10 -9 1 9 10 4 26 -13 13
-14 29 -26 35 -26 6 0 8 -4 5 -10 -3 -5 -2 -10 3 -10 5 0 31 -20 58 -44 26
-25 52 -42 56 -40 4 3 5 -1 2 -9 -3 -8 0 -18 7 -23 8 -5 10 -3 4 7 -4 8 8 -3
28 -24 19 -20 38 -44 41 -53 3 -8 10 -13 15 -10 10 7 25 -22 22 -42 -1 -7 2
-11 7 -10 11 4 83 -88 75 -96 -4 -3 1 -6 11 -6 9 0 15 -4 12 -9 -3 -4 2 -17
10 -27 9 -10 12 -13 8 -5 -4 9 -3 12 4 7 6 -4 8 -14 5 -23 -4 -9 1 -21 12 -29
10 -8 15 -14 11 -14 -4 0 0 -7 9 -16 9 -9 14 -23 11 -30 -3 -8 0 -13 7 -11 7
1 11 -4 9 -10 -1 -7 3 -13 9 -13 5 0 7 -4 4 -10 -3 -5 -1 -10 4 -10 6 0 11 -7
11 -16 0 -9 9 -28 21 -42 11 -15 16 -28 10 -30 -5 -2 -3 -12 6 -22 9 -11 18
-27 19 -37 2 -10 7 -19 13 -21 5 -2 7 -10 4 -18 -3 -8 0 -14 6 -14 6 0 11 -5
11 -11 0 -5 -6 -7 -12 -3 -16 10 12 -28 29 -39 6 -4 10 -18 7 -31 -2 -14 0
-27 5 -31 6 -3 8 -14 6 -25 -2 -11 0 -20 5 -20 5 0 7 -9 5 -20 -2 -11 1 -20 7
-20 5 0 8 -6 5 -14 -3 -8 -3 -17 1 -21 4 -4 8 -11 8 -16 1 -5 2 -10 4 -11 1
-2 3 -20 4 -40 1 -21 5 -40 9 -44 4 -4 2 -13 -4 -21 -8 -9 -8 -13 0 -13 6 0
11 -10 11 -22 -1 -51 9 -148 15 -157 3 -6 2 -11 -4 -11 -7 0 -7 -9 -3 -22 10
-27 9 -39 -1 -55 -5 -8 -3 -13 3 -13 8 0 9 -7 5 -17 -4 -10 -8 -55 -8 -100 -2
-66 -5 -83 -17 -83 -12 0 -12 -2 -2 -8 9 -6 10 -16 3 -33 -5 -15 -5 -31 0 -41
6 -11 5 -19 -1 -23 -6 -4 -8 -11 -5 -16 4 -5 2 -9 -3 -9 -5 0 -8 -10 -7 -22 1
-13 -5 -32 -14 -42 -9 -11 -10 -16 -3 -12 6 4 12 2 12 -3 0 -6 -4 -11 -8 -11
-5 0 -9 -6 -10 -12 -1 -13 -9 -48 -12 -58 -1 -3 -3 -9 -4 -15 -10 -48 -32
-103 -40 -98 -5 4 -7 -1 -3 -10 3 -9 2 -19 -4 -22 -5 -4 -7 -11 -4 -16 4 -5 1
-9 -6 -9 -7 0 -10 -2 -7 -6 3 -3 -7 -32 -23 -65 -16 -33 -27 -65 -23 -70 3 -5
0 -8 -8 -7 -8 2 -12 -4 -10 -16 2 -11 -1 -15 -7 -11 -7 3 -11 -2 -11 -15 0
-20 -5 -29 -40 -69 -8 -9 -16 -26 -18 -36 -2 -11 -10 -25 -18 -31 -8 -6 -14
-14 -14 -18 0 -4 -12 -18 -26 -31 -14 -13 -25 -26 -25 -29 3 -19 0 -27 -7 -22
-5 3 -15 -7 -23 -22 -17 -34 -60 -78 -72 -74 -5 1 -6 -2 -3 -7 4 -5 -2 -14
-11 -20 -10 -6 -15 -11 -12 -11 4 0 -10 -17 -30 -38 -20 -21 -38 -37 -40 -36
-6 5 -29 -21 -24 -28 2 -5 -3 -8 -11 -8 -9 0 -16 -5 -16 -11 0 -5 -4 -7 -10
-4 -5 3 -10 1 -10 -5 0 -6 -14 -25 -32 -43 -17 -18 -25 -23 -17 -13 13 18 13
18 -8 6 -12 -8 -20 -17 -18 -21 3 -3 -7 -11 -20 -17 -14 -7 -25 -17 -25 -23 0
-6 -7 -9 -15 -5 -8 3 -14 0 -12 -7 1 -7 -4 -11 -11 -9 -7 1 -15 -5 -18 -13 -4
-8 -12 -15 -20 -15 -8 0 -14 -5 -14 -11 0 -5 -4 -8 -9 -4 -6 3 -14 -2 -19 -11
-5 -9 -11 -15 -13 -14 -10 3 -45 -15 -52 -27 -5 -7 -12 -11 -18 -8 -5 4 -12
-1 -15 -9 -3 -9 -10 -14 -14 -11 -5 3 -12 1 -15 -5 -5 -8 -12 -7 -23 2 -9 7
-13 8 -9 2 4 -7 0 -17 -8 -24 -8 -7 -15 -9 -15 -5 0 4 -6 2 -13 -4 -8 -6 -17
-8 -20 -4 -4 3 -7 1 -7 -5 0 -7 -9 -12 -20 -12 -11 0 -20 -4 -20 -10 0 -5 -7
-6 -17 -3 -12 5 -14 3 -8 -8 7 -11 5 -11 -10 1 -10 8 -16 10 -12 4 8 -13 -19
-27 -34 -18 -5 3 -9 0 -9 -6 0 -6 -4 -9 -9 -5 -5 3 -16 -1 -24 -9 -8 -8 -17
-13 -20 -10 -3 4 -12 2 -19 -2 -7 -5 -23 -9 -34 -9 -12 0 -30 -7 -40 -15 -16
-13 -17 -13 -9 0 7 12 6 13 -7 3 -8 -7 -18 -10 -21 -6 -4 3 -7 0 -7 -7 0 -7
-3 -11 -6 -8 -3 4 -20 2 -37 -3 -18 -5 -56 -11 -85 -13 -29 -2 -59 -9 -66 -15
-10 -8 -16 -9 -21 -1 -3 6 -11 8 -16 4 -16 -10 -70 -11 -75 -2 -3 5 -11 5 -17
0 -14 -11 -214 -8 -241 3 -14 6 -17 5 -11 -4 6 -10 3 -11 -14 -2 -11 7 -41 12
-66 13 -30 0 -42 4 -38 12 4 6 -1 5 -10 -3 -9 -7 -17 -9 -17 -3 0 5 -9 8 -20
5 -11 -3 -20 -1 -20 5 0 6 -8 9 -17 8 -10 -2 -31 1 -48 6 -16 5 -41 11 -55 13
-14 3 -32 6 -41 8 -10 1 -24 8 -32 15 -8 7 -22 10 -31 6 -9 -3 -16 -2 -16 4 0
5 -7 13 -16 16 -10 4 -13 2 -7 -7 4 -6 -5 -4 -20 6 -15 10 -33 15 -40 11 -8
-5 -9 -4 -2 4 6 6 27 12 48 14 20 1 37 5 37 8 0 4 14 7 30 8 49 3 60 5 60 12
0 3 8 6 18 7 53 3 82 9 82 15 0 4 9 5 20 3 11 -2 20 1 20 6 0 6 5 7 10 4 6 -3
10 -1 10 5 0 6 4 9 9 5 6 -3 15 4 21 16 8 15 9 19 1 15 -6 -4 -11 -2 -11 3 0
6 5 11 11 11 8 0 9 4 0 13 -6 8 -8 17 -4 20 3 4 1 7 -5 7 -7 0 -12 7 -12 16 0
8 -4 12 -10 9 -5 -3 -10 -2 -10 2 0 5 -12 8 -27 7 -16 -1 -28 -3 -28 -4 0 -2
-13 -3 -30 -5 -18 -1 -29 -7 -27 -14 2 -9 -3 -9 -19 0 -17 9 -20 8 -14 -1 6
-10 1 -12 -19 -8 -14 3 -26 1 -26 -4 0 -5 -10 -8 -22 -7 -13 2 -33 -3 -45 -9
-19 -10 -23 -10 -23 0 -1 8 -5 7 -14 -4 -15 -20 -31 -24 -20 -5 4 6 -2 4 -13
-6 -14 -13 -23 -15 -28 -7 -5 8 -11 8 -19 1 -7 -6 -16 -8 -19 -4 -4 3 -7 2 -7
-3 0 -6 -15 -10 -32 -9 -18 0 -38 -3 -45 -7 -13 -10 -60 -21 -85 -20 -10 0
-18 -3 -18 -7 0 -5 -10 -7 -22 -7 -13 1 -32 -5 -42 -13 -11 -9 -17 -11 -13 -5
3 6 0 11 -8 11 -8 0 -12 -4 -10 -8 3 -4 -2 -9 -10 -13 -8 -3 -15 0 -15 6 0 7
-4 7 -12 1 -12 -8 -59 -24 -122 -40 -12 -3 -31 -5 -43 -5 -12 0 -22 -3 -21 -7
2 -17 -4 -20 -28 -11 -16 7 -23 7 -19 0 4 -6 -5 -10 -19 -10 -14 0 -26 -4 -26
-9 0 -5 -10 -7 -22 -3 -13 3 -19 1 -15 -5 4 -6 -4 -9 -18 -7 -14 1 -25 -1 -25
-6 0 -5 -8 -7 -17 -5 -10 1 -24 -3 -32 -9 -11 -8 -13 -8 -8 1 5 8 1 8 -17 0
-13 -7 -22 -16 -18 -22 3 -5 -2 -4 -11 4 -11 8 -17 9 -17 3 0 -6 -6 -9 -14 -6
-8 3 -17 1 -20 -5 -4 -6 -13 -8 -20 -5 -8 3 -17 0 -21 -5 -3 -6 -11 -9 -16 -6
-5 4 -9 1 -9 -6 0 -10 -3 -10 -11 -2 -9 9 -17 8 -34 -3 -12 -7 -33 -15 -48
-16 -15 -1 -27 -6 -27 -10 0 -4 -9 -5 -20 -3 -11 2 -20 -1 -20 -6 0 -6 -5 -7
-11 -3 -6 3 -14 1 -18 -5 -12 -19 -39 -2 -34 20 3 10 8 17 12 15 4 -3 8 6 9
20 3 46 5 54 14 54 5 0 7 4 4 9 -3 4 1 17 9 27 8 10 14 24 15 29 0 6 -5 3 -10
-5 -5 -8 -10 -11 -10 -7 0 4 7 19 16 32 9 14 13 25 9 25 -4 0 0 11 9 25 9 14
15 29 12 33 -3 5 1 20 8 33 12 23 27 72 26 84 0 3 7 19 15 35 8 16 15 32 15
35 1 23 14 64 20 60 5 -3 6 3 3 14 -3 10 0 22 5 25 6 3 8 15 5 26 -3 12 0 20
6 20 7 0 9 -5 5 -12 -4 -6 -3 -8 3 -5 6 4 8 19 5 33 -4 20 -2 25 8 19 8 -5 11
-4 6 3 -8 14 3 64 14 57 4 -2 6 7 4 20 -1 14 2 27 7 31 5 3 7 10 4 15 -4 5 -1
9 4 9 6 0 11 8 11 18 0 10 6 24 12 31 11 11 10 12 0 6 -12 -6 -12 -3 -2 16 18
32 15 77 -6 100 -9 10 -13 19 -8 19 5 0 -1 7 -13 15 -15 10 -19 21 -16 36 4
15 3 20 -5 15 -8 -5 -12 0 -12 12 0 11 -7 25 -15 32 -8 7 -15 21 -15 31 0 10
-5 21 -10 24 -6 4 -8 11 -5 16 4 5 1 9 -5 9 -6 0 -9 4 -6 9 3 4 -4 26 -15 47
-11 21 -22 56 -26 77 -3 20 -9 37 -14 37 -5 0 -8 3 -8 8 4 25 -2 42 -13 36
-10 -6 -10 -5 -1 8 7 8 10 18 6 22 -7 6 -9 16 -18 66 -2 14 -4 25 -5 25 -6 0
-21 98 -22 145 0 19 -5 41 -10 48 -7 8 -7 12 2 12 9 0 9 4 -1 17 -12 15 -12
16 1 8 12 -7 13 -6 4 6 -13 16 -14 226 -1 246 4 6 3 14 -3 18 -6 4 -9 9 -6 13
5 9 19 118 20 160 1 17 3 32 6 32 6 0 10 25 13 72 1 14 5 24 9 21 5 -2 9 6 9
19 1 13 2 28 4 33 1 6 3 16 3 23 1 7 6 11 11 8 4 -3 7 6 5 19 -1 14 2 25 7 25
6 0 8 4 4 9 -3 5 -1 12 5 16 6 4 7 11 4 17 -5 8 -1 9 11 4 14 -5 15 -4 7 7
-12 15 -5 57 10 57 5 0 7 3 5 8 -3 4 3 25 14 46 10 21 16 43 12 49 -3 6 -1 7
5 3 11 -6 16 6 13 27 0 4 4 7 10 7 5 0 7 5 4 10 -3 6 -1 10 5 10 6 0 9 4 5 9
-3 6 5 20 17 32 13 12 16 19 8 15 -8 -4 -6 0 4 8 11 9 16 16 11 16 -5 0 2 12
16 27 13 14 17 23 9 19 -11 -6 -11 -4 1 6 9 7 19 23 23 36 4 12 12 20 17 17 8
-6 14 16 10 38 -1 5 3 6 8 3 5 -3 15 2 22 11 12 14 12 16 -1 9 -8 -4 -4 2 10
15 14 12 24 26 23 30 -2 5 2 9 7 9 6 0 10 7 10 16 0 8 5 12 10 9 6 -3 10 1 10
9 0 9 5 16 10 16 6 0 10 7 10 16 0 14 2 15 17 3 10 -8 14 -9 10 -2 -4 7 4 23
18 37 14 14 24 26 21 26 -3 0 14 18 36 40 23 22 46 40 51 40 4 0 5 5 2 10 -3
6 1 10 9 10 9 0 16 5 16 10 0 6 7 10 16 10 8 0 13 3 11 8 -3 4 1 13 9 20 8 7
14 10 14 7 0 -3 9 3 19 13 32 28 50 42 56 42 3 0 18 14 35 32 16 17 30 28 30
24 0 -4 20 7 44 24 25 16 52 30 61 30 8 0 18 7 21 15 4 8 12 15 20 15 8 0 14
5 14 11 0 5 4 8 9 4 5 -3 12 -1 16 5 4 6 11 8 16 5 5 -4 9 -1 9 5 0 6 5 8 10
5 6 -3 10 -1 10 5 0 6 5 8 10 5 6 -3 10 -1 10 4 0 6 3 10 8 9 4 -1 21 5 37 12
17 7 33 13 38 12 4 -1 7 3 7 9 0 5 4 8 9 4 5 -3 12 -1 16 4 3 6 13 7 22 4 9
-4 14 -2 10 3 -5 8 50 30 98 40 6 1 12 3 15 4 10 3 45 11 58 12 6 1 12 5 12
10 0 4 5 8 11 8 5 0 7 -6 3 -12 -4 -7 1 -6 12 3 10 9 29 15 42 14 12 -1 22 1
22 5 0 4 20 6 45 5 25 -1 45 2 45 7 0 4 13 6 30 4 16 -2 28 0 25 4 -2 4 30 7
71 6 42 -1 77 1 79 4 5 8 90 4 103 -4z m-2003 -1896 c3 -5 1 -10 -4 -10 -6 0
-11 5 -11 10 0 6 2 10 4 10 3 0 8 -4 11 -10z"/>
<path d="M1285 3330 c5 -9 2 -10 -13 -6 -11 4 -23 2 -27 -4 -3 -6 -11 -8 -16
-5 -5 4 -9 1 -9 -5 0 -6 -4 -9 -9 -6 -5 3 -20 -3 -33 -14 -14 -11 -29 -16 -32
-12 -4 4 -6 2 -4 -3 3 -12 -63 -81 -74 -77 -8 2 -12 -13 -9 -30 0 -5 -4 -8 -9
-8 -15 0 -98 -83 -102 -101 -2 -8 -10 -21 -19 -29 -9 -8 -19 -25 -23 -38 -4
-12 -12 -20 -17 -17 -5 4 -9 -3 -9 -14 0 -10 -5 -21 -10 -23 -6 -2 -12 -13
-14 -25 -3 -12 -9 -30 -15 -41 -12 -23 -23 -70 -23 -99 0 -15 -4 -20 -12 -16
-6 4 -4 -2 4 -12 10 -13 11 -16 2 -11 -10 6 -13 3 -11 -10 2 -11 0 -24 -4 -31
-4 -6 -3 -14 3 -18 7 -4 7 -12 0 -26 -6 -10 -7 -19 -2 -19 12 0 10 -43 -3 -52
-6 -5 -4 -8 5 -8 11 0 15 -10 15 -35 -1 -20 4 -40 11 -46 7 -6 11 -19 9 -29
-2 -10 2 -24 10 -30 7 -6 11 -19 8 -29 -3 -10 0 -22 6 -25 6 -4 11 -16 11 -27
0 -10 5 -19 11 -19 5 0 7 -4 4 -10 -3 -5 -1 -10 5 -10 6 0 8 -4 5 -10 -3 -5
-2 -10 3 -10 4 0 14 -16 22 -35 8 -19 18 -35 23 -35 5 0 7 -6 4 -12 -2 -7 5
-21 16 -30 11 -10 17 -18 13 -18 -4 0 -1 -6 6 -14 7 -8 16 -12 20 -10 4 3 5
-4 3 -15 -3 -15 0 -18 13 -14 9 3 14 3 10 -2 -11 -11 11 -47 24 -39 6 4 8 3 5
-3 -4 -6 11 -30 33 -54 21 -24 36 -47 34 -51 -3 -5 -2 -7 3 -6 10 4 772 -759
765 -767 -3 -3 1 -5 9 -5 8 0 32 -18 54 -40 22 -21 46 -39 53 -40 7 0 11 -4 8
-8 -3 -5 4 -15 16 -23 11 -8 31 -24 44 -37 15 -14 24 -18 24 -10 0 10 3 9 9
-2 6 -8 8 -17 5 -21 -2 -4 5 -5 16 -2 16 4 19 2 14 -11 -5 -12 -2 -15 10 -10
10 4 18 0 22 -10 3 -9 17 -16 30 -16 15 0 24 -6 24 -16 0 -8 5 -12 10 -9 6 3
10 1 10 -5 0 -6 4 -8 10 -5 5 3 10 1 10 -5 0 -7 6 -10 14 -7 7 3 21 -4 30 -15
10 -11 24 -17 32 -14 9 3 12 1 9 -4 -5 -9 23 -15 48 -11 4 0 7 -4 7 -10 0 -5
4 -8 9 -5 5 4 12 0 14 -6 4 -10 6 -10 6 0 1 10 5 10 17 -2 8 -9 19 -14 24 -11
5 3 11 1 15 -4 3 -6 12 -8 20 -4 9 3 15 -1 15 -8 0 -11 3 -11 10 1 5 8 10 10
10 3 0 -6 8 -10 18 -8 9 1 22 -2 29 -7 7 -5 14 -5 17 1 4 6 18 6 36 1 16 -5
32 -5 35 0 3 4 16 7 30 5 14 -1 25 2 25 6 0 5 5 9 11 9 5 0 7 -6 3 -12 -5 -9
-2 -9 9 1 9 7 17 10 17 6 0 -4 6 -3 13 4 10 8 17 7 25 -1 9 -9 12 -8 12 7 0
10 3 15 7 12 3 -4 12 -2 20 4 10 9 13 8 13 0 0 -8 5 -7 15 3 8 8 24 13 35 11
12 -2 18 0 14 6 -3 6 3 13 15 16 12 3 21 10 21 15 0 5 5 6 10 3 6 -3 10 -1 10
4 0 6 6 11 13 11 8 0 31 16 51 36 20 20 40 33 43 30 4 -3 15 8 25 25 10 16 23
27 28 24 6 -3 10 1 10 9 0 9 4 16 10 16 5 0 15 11 22 24 7 14 16 25 21 25 4 1
12 1 18 1 5 0 8 4 4 9 -3 6 3 14 13 20 10 5 27 26 37 45 11 20 23 36 26 36 4
0 6 11 5 25 -2 14 3 30 10 36 10 8 11 16 3 31 -8 15 -8 19 0 14 6 -4 11 -3 11
3 0 5 -5 13 -10 16 -7 4 -6 13 1 27 7 13 7 18 1 14 -7 -4 -15 9 -21 30 -5 19
-20 44 -31 54 -12 11 -19 24 -15 29 3 6 -1 11 -9 11 -8 0 -17 9 -21 20 -3 10
-19 30 -36 44 -16 14 -29 30 -29 36 0 6 -4 8 -10 5 -5 -3 -10 -2 -10 4 0 5 -9
13 -20 16 -11 3 -20 13 -20 21 0 8 -5 14 -11 14 -7 0 -18 8 -26 18 -9 10 -12
11 -7 2 4 -8 -3 -5 -15 8 -12 12 -26 22 -32 22 -6 0 -7 5 -3 12 4 6 3 8 -4 4
-6 -3 -23 5 -38 19 -14 13 -30 22 -35 19 -5 -3 -9 2 -9 11 0 9 -4 14 -9 10 -5
-3 -16 2 -24 10 -9 8 -20 15 -26 15 -6 0 -11 4 -11 10 0 5 -7 7 -15 4 -8 -4
-15 -1 -15 5 0 6 -3 10 -7 9 -5 -1 -18 3 -30 10 -15 8 -23 9 -23 2 0 -5 -5
-10 -11 -10 -5 0 -7 5 -4 10 4 6 -8 8 -32 4 -57 -8 -74 -14 -67 -25 3 -5 2 -8
-3 -7 -13 3 -53 -13 -53 -21 0 -5 -22 -31 -49 -59 -27 -28 -46 -53 -43 -56 3
-3 -2 -6 -12 -6 -9 0 -15 -3 -13 -7 6 -10 -19 -34 -27 -26 -3 4 -6 1 -6 -6 0
-7 -4 -10 -9 -7 -5 3 -12 -1 -15 -10 -3 -8 -10 -12 -16 -9 -5 3 -10 2 -10 -3
0 -5 -11 -8 -25 -7 -14 2 -27 -1 -31 -6 -3 -5 -13 -5 -25 1 -10 6 -19 7 -19 3
0 -4 -5 -1 -10 7 -9 13 -10 13 -10 0 0 -13 -1 -13 -10 0 -5 8 -14 15 -19 15
-16 0 -141 119 -141 134 0 8 -3 12 -6 9 -7 -8 -103 85 -97 95 2 4 -1 7 -6 7
-15 0 -51 37 -51 52 0 6 -3 8 -6 5 -8 -8 -154 140 -154 155 0 6 -3 9 -6 6 -7
-8 -103 85 -97 95 2 4 -3 7 -12 7 -11 0 -15 5 -11 16 3 8 2 13 -3 9 -16 -9
-51 51 -56 94 -2 22 -6 45 -10 51 -3 5 -2 10 3 10 6 0 8 10 4 22 -3 14 -2 19
6 14 8 -5 12 2 12 19 0 14 4 24 9 20 5 -3 13 4 16 16 4 11 9 19 11 16 2 -2 34
25 70 59 36 35 70 64 74 64 9 0 25 40 22 53 -1 5 2 6 7 2 10 -5 17 13 23 60 2
11 8 23 13 27 6 4 2 8 -7 8 -10 0 -18 5 -18 11 0 5 4 8 9 5 5 -3 1 17 -10 44
-10 28 -17 50 -14 50 3 0 -6 12 -20 28 -14 15 -23 33 -20 39 2 7 1 12 -3 10
-4 -1 -8 1 -9 6 -2 4 -12 16 -23 27 -12 12 -18 25 -15 31 4 5 3 9 -2 8 -20 -3
-27 2 -13 11 13 8 13 10 -1 10 -9 0 -24 10 -35 22 -12 15 -14 19 -4 13 9 -6 7
-2 -5 9 -11 10 -19 23 -17 27 1 5 -5 9 -13 9 -8 0 -15 4 -15 9 0 4 -14 22 -30
40 -17 17 -28 36 -25 42 4 5 3 8 -2 7 -15 -4 -54 23 -47 34 4 7 3 8 -4 4 -7
-4 -12 -2 -12 3 0 6 -4 10 -9 9 -5 -2 -17 6 -26 17 -9 11 -13 13 -9 5 4 -8 -3
-5 -15 8 -12 12 -28 22 -36 22 -8 0 -15 6 -15 13 0 8 -4 7 -10 -3 -8 -12 -10
-12 -10 -1 0 8 -7 11 -20 8 -11 -3 -23 -1 -26 4 -3 5 -10 9 -15 9 -6 0 -7 -5
-3 -11 4 -7 -1 -7 -16 1 -17 9 -21 9 -15 0z m98 -156 c14 -10 27 -25 27 -32 0
-7 4 -10 10 -7 14 8 143 -128 132 -140 -3 -3 1 -5 9 -5 8 -1 30 -25 49 -55 19
-29 38 -51 42 -48 5 2 7 1 6 -4 -4 -14 13 -53 23 -53 5 0 9 -9 9 -19 0 -11 4
-21 9 -23 5 -1 12 -19 15 -38 5 -32 2 -39 -46 -82 -29 -27 -56 -48 -59 -48 -4
0 -21 -19 -38 -42 -17 -23 -31 -38 -31 -33 0 5 -6 0 -14 -10 -8 -11 -12 -23
-9 -27 2 -5 -3 -11 -11 -14 -9 -3 -13 -10 -10 -15 8 -13 -6 -11 -19 4 -7 6
-12 22 -11 35 1 12 -2 22 -7 22 -4 0 -8 8 -8 18 0 47 -12 98 -26 108 -8 6 -13
13 -11 15 2 2 -9 5 -26 6 -32 2 -81 -23 -72 -38 3 -5 -1 -9 -8 -9 -9 0 -9 -3
2 -10 13 -9 13 -10 0 -10 -9 0 -11 -3 -5 -8 6 -4 10 -22 10 -39 -1 -18 3 -33
8 -33 5 0 7 -7 3 -15 -3 -8 0 -15 7 -15 8 0 6 -4 -3 -10 -11 -7 -11 -10 -2
-10 7 0 10 -4 7 -10 -3 -5 -1 -10 5 -10 6 0 8 -4 5 -10 -3 -5 0 -10 7 -10 11
0 10 -2 0 -9 -11 -7 -11 -9 2 -14 9 -4 13 -13 10 -22 -4 -8 -1 -15 6 -15 6 0
10 -6 8 -12 -3 -7 2 -19 9 -27 8 -7 12 -20 9 -27 -3 -7 0 -16 6 -20 7 -5 8 -2
3 7 -5 10 -5 11 3 4 6 -5 12 -16 14 -24 2 -7 13 -25 26 -39 12 -14 20 -27 18
-29 -2 -2 18 -27 44 -55 27 -29 47 -55 44 -60 -3 -4 2 -8 10 -8 9 0 16 -4 16
-10 0 -5 8 -10 17 -10 9 0 14 -3 10 -6 -7 -7 41 -54 56 -54 6 0 8 -3 4 -6 -3
-3 7 -17 24 -31 16 -14 26 -30 22 -35 -3 -7 -1 -8 5 -4 11 6 55 -28 46 -36 -2
-3 7 -11 21 -18 14 -7 25 -19 25 -25 0 -6 11 -18 25 -25 13 -7 27 -20 30 -29
3 -9 21 -27 40 -40 19 -13 33 -26 32 -30 -2 -3 7 -16 19 -28 15 -14 25 -17 28
-10 2 7 5 6 5 -3 1 -8 10 -21 21 -28 11 -7 20 -19 20 -27 0 -8 4 -15 9 -15 10
0 91 -79 91 -89 0 -4 11 -14 25 -21 14 -7 25 -17 25 -22 0 -5 5 -6 10 -3 6 3
13 -1 16 -9 3 -9 13 -16 20 -16 8 0 24 -9 36 -20 12 -11 28 -20 35 -20 7 0 13
-5 13 -12 0 -6 3 -8 7 -5 3 4 12 -1 20 -11 8 -9 12 -12 9 -5 -5 8 0 8 19 0 14
-7 25 -16 25 -20 0 -5 4 -6 9 -2 5 3 12 1 16 -5 4 -6 11 -8 16 -5 5 4 9 1 9
-4 0 -6 3 -10 8 -10 4 1 9 0 12 -1 3 -1 14 -3 25 -5 40 -7 55 -11 61 -17 3 -4
12 -4 19 -2 7 3 16 1 19 -5 4 -6 14 -7 22 -4 9 3 20 0 26 -8 8 -11 11 -11 15
-1 4 10 8 10 19 1 10 -8 14 -8 14 -1 0 6 6 9 14 6 9 -3 17 3 21 15 3 12 11 21
16 21 5 0 9 5 9 11 0 5 -6 7 -12 3 -10 -6 -10 -4 -1 6 10 11 8 19 -10 39 -18
21 -19 23 -2 11 19 -14 19 -14 6 3 -8 10 -20 16 -26 13 -7 -2 -18 1 -24 7 -6
6 -11 7 -11 3 0 -5 -7 -3 -15 4 -11 9 -15 9 -15 1 0 -7 -5 -9 -12 -4 -7 4 -24
9 -38 11 -14 2 -26 7 -28 12 -2 5 -10 6 -19 3 -10 -4 -14 -2 -10 4 9 14 -25
12 -35 -2 -4 -5 -6 0 -6 12 1 12 7 19 15 16 7 -3 13 0 13 6 0 6 7 11 16 11 8
0 13 4 10 8 -3 5 6 15 19 22 14 7 25 17 25 22 0 5 6 6 13 2 6 -4 9 -4 5 1 -10
10 11 37 23 29 5 -3 6 3 2 13 -3 10 -2 15 2 11 5 -5 13 2 20 15 6 12 17 21 23
19 7 -1 11 1 11 5 -3 21 2 33 14 31 6 -2 11 2 10 7 -1 6 10 11 23 11 13 1 24
-2 24 -8 0 -5 5 -6 10 -3 11 7 70 -15 70 -26 0 -4 14 -12 30 -19 17 -7 30 -17
30 -23 0 -6 3 -8 6 -4 5 5 28 -10 64 -44 9 -8 24 -18 33 -22 9 -3 17 -13 17
-22 0 -8 4 -14 9 -13 21 6 169 -150 163 -172 -1 -6 2 -10 7 -10 5 0 8 -20 7
-45 0 -29 -5 -45 -13 -45 -7 0 -13 -4 -13 -10 0 -10 -160 -175 -170 -175 -3 0
-4 -3 -2 -7 2 -7 -6 -10 -24 -7 -4 0 -15 -12 -25 -28 -11 -16 -19 -22 -19 -13
0 10 -7 7 -21 -10 -11 -14 -17 -18 -13 -10 6 12 5 13 -8 3 -8 -7 -19 -9 -23
-5 -5 4 -5 2 -2 -4 4 -6 -5 -16 -19 -23 -14 -6 -23 -7 -20 -2 3 5 -5 4 -18 -2
-13 -7 -22 -15 -20 -19 8 -13 -11 -9 -25 5 -11 10 -12 9 -7 -1 6 -10 -2 -12
-31 -11 -21 1 -45 -2 -54 -5 -10 -4 -20 -3 -24 3 -4 8 -12 8 -26 1 -12 -7 -26
-7 -36 -2 -10 5 -30 9 -45 8 -14 -1 -24 2 -22 6 3 4 2 8 -3 9 -31 3 -58 11
-61 18 -1 4 -13 6 -25 4 -14 -3 -29 2 -36 11 -8 9 -19 16 -27 16 -7 0 -20 8
-30 17 -10 10 -21 19 -26 19 -4 1 -11 3 -15 4 -5 1 -11 2 -15 1 -5 0 -8 3 -8
9 0 5 -12 16 -27 24 -16 8 -40 26 -55 40 -15 14 -30 26 -33 26 -8 0 -54 40
-97 84 -15 15 -28 26 -28 23 0 -2 -18 12 -40 32 -22 20 -40 43 -40 50 0 8 -3
12 -6 8 -8 -7 -114 99 -114 114 0 7 -3 10 -6 6 -8 -8 -44 25 -38 35 3 4 1 8
-5 8 -12 0 -125 110 -114 111 5 0 -2 4 -15 10 -14 5 -20 13 -16 20 5 8 3 9 -5
5 -8 -5 -14 0 -18 13 -5 19 -15 25 -35 22 -5 0 -7 3 -5 8 1 4 -16 25 -37 45
-22 20 -36 36 -30 37 5 0 -1 4 -14 10 -14 5 -20 13 -16 20 5 8 3 9 -5 5 -8 -5
-14 0 -18 13 -5 19 -15 26 -36 22 -5 -1 -6 3 -2 8 3 6 -6 18 -20 27 -13 9 -22
21 -18 27 3 6 1 7 -6 3 -7 -4 -15 2 -20 16 -6 13 -10 20 -10 16 -1 -4 -16 7
-34 25 -19 18 -32 35 -30 40 2 4 -1 7 -7 7 -6 0 -15 11 -22 25 -6 13 -15 22
-19 19 -5 -3 -14 6 -20 20 -7 14 -16 23 -20 20 -5 -3 -9 2 -9 11 0 8 -7 18
-15 21 -8 4 -15 10 -15 16 0 5 -13 23 -30 41 -16 18 -30 37 -30 42 0 6 -9 16
-21 23 -12 7 -18 16 -15 19 3 4 -2 15 -11 26 -13 15 -14 19 -3 13 8 -4 6 0 -4
8 -11 9 -16 16 -10 16 5 0 5 3 -1 8 -13 9 -66 114 -54 106 11 -6 12 10 2 20
-8 7 -9 11 -12 37 0 5 -5 8 -9 5 -4 -2 -7 8 -6 22 0 15 -3 40 -7 56 -5 16 -4
36 1 46 5 10 6 20 3 24 -11 10 -12 35 -3 41 5 3 7 12 4 20 -3 7 0 23 6 35 10
18 9 21 -1 15 -14 -9 -5 9 20 39 9 11 10 16 3 12 -10 -6 -10 -2 -1 18 7 14 16
23 20 20 5 -3 6 2 3 10 -4 9 1 18 10 22 9 3 16 10 16 16 0 5 -6 6 -12 2 -7 -4
-4 2 7 13 11 12 31 34 44 51 14 17 29 28 34 25 6 -3 7 -1 3 5 -4 7 -2 20 3 29
6 10 11 15 11 11 0 -5 17 9 38 30 22 20 37 41 34 46 -3 5 0 6 6 2 6 -3 17 2
24 12 44 60 117 76 171 36z"/>
<path d="M2395 1000 c3 -5 8 -10 11 -10 2 0 4 5 4 10 0 6 -5 10 -11 10 -5 0
-7 -4 -4 -10z"/>
</g>
</svg>
